HIERARCHY
ROOT SpineBase
{
  OFFSET 0.000000 0.000000 0.000000
  CHANNELS 6 Xposition Yposition Zposition Zrotation Xrotation Yrotation
  JOINT SpineMid
  {
    OFFSET 0.000000 31.848700 0.000000
    CHANNELS 3 Zrotation Xrotation Yrotation
    JOINT SpineShoulder
    {
      OFFSET 0.076497 23.650724 -0.710212
      CHANNELS 3 Zrotation Xrotation Yrotation
      JOINT Neck
      {
        OFFSET 0.057821 7.826069 -0.558707
        CHANNELS 3 Zrotation Xrotation Yrotation
        JOINT Head
        {
          OFFSET -4.993892 14.097900 -1.313244
          CHANNELS 3 Zrotation Xrotation Yrotation
          End Site
          {
            OFFSET 0 0 0
          }
        }
      }
      JOINT ShoulderLeft
      {
        OFFSET -16.983712 -5.939666 6.753592
        CHANNELS 3 Zrotation Xrotation Yrotation
        JOINT ElbowLeft
        {
          OFFSET -1.115459 -28.105497 3.245196
          CHANNELS 3 Zrotation Xrotation Yrotation
          JOINT WristLeft
          {
            OFFSET -0.443753 -22.944865 -5.459623
            CHANNELS 3 Zrotation Xrotation Yrotation
            JOINT HandLeft
            {
              OFFSET 0.108993 -4.728102 -1.795123
              CHANNELS 3 Zrotation Xrotation Yrotation
              JOINT HandTipLeft
              {
                OFFSET 0.971529 -6.282021 -1.753204
                CHANNELS 3 Zrotation Xrotation Yrotation
                End Site
                {
                  OFFSET 0 0 0
                }
              }
              JOINT ThumbLeft
              {
                OFFSET -2.567323 -1.168125 -2.169096
                CHANNELS 3 Zrotation Xrotation Yrotation
                End Site
                {
                  OFFSET 0 0 0
                }
              }
            }
          }
        }
      }
      JOINT ShoulderRight
      {
        OFFSET 14.557941 -3.248197 -8.468814
        CHANNELS 3 Zrotation Xrotation Yrotation
        JOINT ElbowRight
        {
          OFFSET 7.675993 -25.669406 -1.451445
          CHANNELS 3 Zrotation Xrotation Yrotation
          JOINT WristRight
          {
            OFFSET -0.633089 -23.095654 -7.637337
            CHANNELS 3 Zrotation Xrotation Yrotation
            JOINT HandRight
            {
              OFFSET -1.888816 -6.257911 -1.248914
              CHANNELS 3 Zrotation Xrotation Yrotation
              JOINT HandTipRight
              {
                OFFSET -0.775223 -6.379334 -2.310092
                CHANNELS 3 Zrotation Xrotation Yrotation
                End Site
                {
                  OFFSET 0 0 0
                }
              }
              JOINT ThumbRight
              {
                OFFSET 2.487402 -1.913943 -2.323505
                CHANNELS 3 Zrotation Xrotation Yrotation
                End Site
                {
                  OFFSET 0 0 0
                }
              }
            }
          }
        }
      }
    }
  }
  JOINT HipLeft
  {
    OFFSET -6.886599 0.227906 -0.920580
    CHANNELS 3 Zrotation Xrotation Yrotation
    JOINT KneeLeft
    {
      OFFSET 4.451174 -34.647168 3.419676
      CHANNELS 3 Zrotation Xrotation Yrotation
      JOINT AnkleLeft
      {
        OFFSET 7.271706 -37.350312 6.323258
        CHANNELS 3 Zrotation Xrotation Yrotation
        JOINT FootLeft
        {
          OFFSET 1.598882 -5.542651 -5.969178
          CHANNELS 3 Zrotation Xrotation Yrotation
          End Site
          {
            OFFSET 0 0 0
          }
        }
      }
    }
  }
  JOINT HipRight
  {
    OFFSET 7.388375 1.450777 -6.275989
    CHANNELS 3 Zrotation Xrotation Yrotation
    JOINT KneeRight
    {
      OFFSET 7.268432 -32.215523 -0.074969
      CHANNELS 3 Zrotation Xrotation Yrotation
      JOINT AnkleRight
      {
        OFFSET 2.532621 -38.010178 7.266105
        CHANNELS 3 Zrotation Xrotation Yrotation
        JOINT FootRight
        {
          OFFSET -3.944635 -6.707437 -2.241079
          CHANNELS 3 Zrotation Xrotation Yrotation
          End Site
          {
            OFFSET 0 0 0
          }
        }
      }
    }
  }
}
MOTION
Frames: 9
Frame Time: 0.033333
-21.986891 78.573331 347.876333 0.864999 -1.192954 18.897118 -0.048237 -0.586465 -18.849562 0.077580 -0.315278 0.058645 6.309307 -15.089864 -4.488528 0.000000 0.000000 0.000000 -19.656871 22.878742 1.075846 76.074651 51.917068 -29.256587 -7.470616 11.481702 -9.074679 16.287316 -7.982867 25.607214 0.000000 0.000000 0.000000 0.000000 0.000000 0.000000 9.398764 51.734236 9.435456 -91.077051 -0.449973 -27.906675 7.983691 5.387474 -10.172277 5.339287 -6.970063 7.770568 0.000000 0.000000 0.000000 0.000000 0.000000 0.000000 -4.059158 2.782454 -19.117439 3.874610 -0.105882 0.370902 -0.246038 2.445299 0.954355 0.000000 0.000000 0.000000 -2.736137 4.107769 -18.353437 2.135295 -2.082723 -0.589672 4.845569 -12.999409 7.588674 0.000000 0.000000 0.000000
-22.000682 78.552305 347.832215 0.842186 -1.232800 18.861278 -0.081830 -0.582540 -18.815123 0.058891 -0.320339 0.055321 6.837798 -15.503810 -4.523304 0.000000 0.000000 0.000000 -20.714910 23.209609 1.262189 75.848963 49.565096 -26.574158 -7.218768 21.234474 -12.771275 21.478519 -14.910896 32.813876 0.000000 0.000000 0.000000 0.000000 0.000000 0.000000 9.438947 51.954299 9.488817 -91.282843 0.052076 -27.730301 8.074551 4.380995 -10.635464 4.411276 -6.687734 7.993107 0.000000 0.000000 0.000000 0.000000 0.000000 0.000000 -4.052622 2.772704 -19.087133 3.887004 -0.061443 0.376324 -1.825944 5.933447 3.589340 0.000000 0.000000 0.000000 -2.778744 4.129381 -18.319816 2.274965 -2.081308 -0.568279 3.472697 -5.553309 2.945024 0.000000 0.000000 0.000000
-22.010971 78.511013 347.771223 0.828208 -1.274568 18.869559 -0.129229 -0.572840 -18.824720 0.044218 -0.325630 0.051996 7.355210 -15.827459 -4.533766 0.000000 0.000000 0.000000 -21.675665 22.777858 1.329947 79.095387 50.301423 -28.498551 -4.377466 20.227974 -12.513311 19.252973 -19.149086 33.133215 0.000000 0.000000 0.000000 0.000000 0.000000 0.000000 10.065100 52.085250 9.197559 -91.096672 0.949576 -27.074902 7.211248 1.461447 -11.749652 1.547915 -9.333684 7.006837 0.000000 0.000000 0.000000 0.000000 0.000000 0.000000 -4.047876 2.772846 -19.099750 3.896461 -0.020307 0.381137 -3.214183 8.562677 5.755173 0.000000 0.000000 0.000000 -2.861883 4.089296 -18.346953 3.186915 -1.694877 -0.340564 2.396474 -2.376665 0.659485 0.000000 0.000000 0.000000
-22.012994 78.453344 347.693268 0.884809 -1.301560 18.838747 -0.110959 -0.559130 -18.790878 0.068960 -0.309018 0.056239 7.205610 -16.109651 -4.624469 0.000000 0.000000 0.000000 -23.706178 23.945188 1.735600 81.518049 49.845806 -27.536622 -6.763427 19.231713 -12.953739 21.909795 -21.787093 35.031974 0.000000 0.000000 0.000000 0.000000 0.000000 0.000000 11.125425 52.030621 8.547008 -92.234672 1.494943 -26.738841 9.828988 1.821540 -11.987346 -1.454294 -14.637186 4.908730 0.000000 0.000000 0.000000 0.000000 0.000000 0.000000 -4.113281 2.755612 -19.073617 3.895097 0.041837 0.386869 -4.433460 9.429151 7.292133 0.000000 0.000000 0.000000 -3.001295 4.049926 -18.333969 3.249141 -1.587193 -0.318639 2.646741 -4.274117 1.775181 0.000000 0.000000 0.000000
-22.010506 78.402686 347.608481 0.965700 -1.318397 18.780159 -0.062107 -0.553263 -18.727554 0.111175 -0.291439 0.063834 6.813208 -16.361540 -4.743625 0.000000 0.000000 0.000000 -24.486903 23.941965 1.795224 84.880026 52.814093 -31.212781 -8.269979 3.653125 -7.392366 24.260796 -13.494978 30.652815 0.000000 0.000000 0.000000 0.000000 0.000000 0.000000 12.315786 51.773833 7.749409 -93.502599 1.977881 -26.245500 13.502904 2.572146 -12.218371 -3.646874 -16.775073 4.316943 0.000000 0.000000 0.000000 0.000000 0.000000 0.000000 -4.196378 2.731324 -19.018670 3.883362 0.103640 0.391564 -5.010089 9.204991 7.867623 0.000000 0.000000 0.000000 -3.189792 3.953640 -18.305919 3.314593 -1.421460 -0.285455 1.911561 -0.318641 -0.450879 0.000000 0.000000 0.000000
-22.009995 78.389846 347.526001 1.094592 -1.314965 18.719640 0.034847 -0.550309 -18.659401 0.174071 -0.262582 0.076389 5.911546 -16.602101 -4.939117 0.000000 0.000000 0.000000 -25.235153 25.179175 2.045897 86.004500 53.540337 -31.371648 -13.184086 -4.571601 -6.474514 28.933713 -6.761769 27.573872 0.000000 0.000000 0.000000 0.000000 0.000000 0.000000 12.691797 51.348165 7.320921 -94.416570 2.277003 -25.690811 17.311840 4.098561 -12.294856 -5.778179 -19.345935 3.559629 0.000000 0.000000 0.000000 0.000000 0.000000 0.000000 -4.326212 2.707006 -18.959879 3.867961 0.159713 0.395376 -4.316159 7.954000 6.804839 0.000000 0.000000 0.000000 -3.378964 3.918120 -18.258332 3.351349 -1.334590 -0.268116 0.239343 12.330833 -7.127661 0.000000 0.000000 0.000000
-22.012655 78.389204 347.446624 1.260211 -1.313652 18.597426 0.152435 -0.543741 -18.527642 0.229894 -0.233059 0.090777 4.821426 -16.826867 -5.166355 0.000000 0.000000 0.000000 -25.905215 28.226449 2.627862 83.525175 53.307115 -27.565487 -20.435801 -9.363702 -8.078944 38.153849 -3.161682 27.359588 0.000000 0.000000 0.000000 0.000000 0.000000 0.000000 11.909943 50.941077 7.499389 -94.859499 2.468727 -25.165536 21.286615 6.098064 -12.379727 -6.891689 -20.026601 3.722621 0.000000 0.000000 0.000000 0.000000 0.000000 0.000000 -4.501703 2.655566 -18.842777 3.568078 -0.492438 0.208760 -3.279667 6.157950 5.558980 0.000000 0.000000 0.000000 -3.569678 3.916216 -18.140678 2.575127 -1.723245 -0.457745 0.218714 20.491579 -10.755019 0.000000 0.000000 0.000000
-22.019301 78.407995 347.381311 1.436485 -1.343785 18.485381 0.229868 -0.553025 -18.405646 0.256447 -0.222427 0.102981 3.875921 -16.761500 -5.318750 0.000000 0.000000 0.000000 -26.512683 29.462997 2.907378 89.482512 53.748860 -30.852276 -31.397736 -17.880358 -11.479737 43.840444 2.166742 22.608275 0.000000 0.000000 0.000000 0.000000 0.000000 0.000000 10.423676 50.716702 8.087108 -94.883676 2.587877 -24.760613 24.104356 7.166007 -12.590253 -7.345708 -21.173830 3.414995 0.000000 0.000000 0.000000 0.000000 0.000000 0.000000 -4.686311 2.660076 -18.730893 3.547269 -0.433241 0.209840 -1.786900 2.434473 2.954293 0.000000 0.000000 0.000000 -3.721512 4.024812 -18.011234 2.548218 -2.008232 -0.488209 0.095965 25.106151 -12.958399 0.000000 0.000000 0.000000
-22.032367 78.430879 347.327488 1.581454 -1.384162 18.401351 0.284805 -0.561922 -18.313323 0.259358 -0.225850 0.111918 3.220440 -16.606199 -5.402054 0.000000 0.000000 0.000000 -26.288820 29.937464 2.921949 95.606418 51.949780 -33.652927 -48.528977 -16.280766 -19.360799 52.549819 6.394931 21.078809 0.000000 0.000000 0.000000 0.000000 0.000000 0.000000 8.958651 50.573800 8.710414 -94.961797 2.598481 -24.516735 26.476615 9.677110 -12.446858 -6.456652 -21.470875 3.620362 0.000000 0.000000 0.000000 0.000000 0.000000 0.000000 -4.836723 2.676638 -18.646111 3.560768 -0.385572 0.215181 0.396431 -2.676671 -0.934827 0.000000 0.000000 0.000000 -3.799779 4.190564 -17.896201 2.525701 -2.391119 -0.529596 0.290147 25.896955 -13.324038 0.000000 0.000000 0.000000
